<?xml version="1.0" standalone="no"?><!DOCTYPE svg PUBLIC "-//W3C//DTD SVG 1.1//EN" "http://www.w3.org/Graphics/SVG/1.1/DTD/svg11.dtd"><svg t="1764403779950" class="icon" viewBox="0 0 1024 1024" version="1.1" xmlns="http://www.w3.org/2000/svg" p-id="9688" xmlns:xlink="http://www.w3.org/1999/xlink" width="200" height="200"><path d="M417.94 687.36a446.37 446.37 0 0 0 44.88-4.64A383.92 383.92 0 0 0 528 666.6a300.78 300.78 0 0 0 91.58-50.37c33.8-27.26 60.72-60.46 82.24-98.11 18.36-32.12 32.35-66.12 43.4-101.38a758.18 758.18 0 0 0 21.56-88c3.19-17.1 5.69-34.35 8-51.59 1.17-8.63 2.11-17.31 2.93-26 0.56-5.8-3.1-10.93-4.94-16.3-8.72-25.33-18-50.45-26.65-75.81-8-23.45-18.19-52.72-22.77-70.72-2-7.77-3.78-19.29 0.38-32.07 4.57-14 16.41-25.16 24.29-29.69a107.67 107.67 0 0 1 50.46-14.11c7.27-0.27 14.58-0.35 21.86 0 19.2 1 37.27 6.63 53.26 18 10.46 7.44 19.15 16.07 22.34 29 0.06 23.19 2.89 138.44 1 164-0.36 4.73-1.15 7.2 2 10.66 17.08 18.53 31.76 38.86 45.07 60.25a400.5 400.5 0 0 1 24 45.28c9.88 21.65 19.6 45.95 25.69 69 16.21 41.8 17.61 150.22 13.72 177.57-2.15 15.15-4.68 32.37-6.75 43.87a476.82 476.82 0 0 1-11.48 48.88 523.16 523.16 0 0 1-18.57 53.52 475.9 475.9 0 0 1-38.55 74.2 470.51 470.51 0 0 1-28.86 40.25c-7.18 9-14.43 18.06-22.65 26.08C843.34 909.52 804 942 760.78 959.53c-36.4 14.8-72.38 29.55-110.71 38.14a649.19 649.19 0 0 1-69.23 11.16c-28 3.16-56.07 3.3-84.12 2.53-17-0.47-33.9-2.34-50.8-4.5a554.22 554.22 0 0 1-115.39-27.32c-47.4-16.81-91.57-39.76-132.07-69.74a476.7 476.7 0 0 1-62-54.34C118.61 836.67 101.62 817 87.77 795c-6.64-10.55-15.46-16.84-27-20.42-9.65-3-19.08-6.66-28.63-10-7.22-2.51-11.13-7.52-13.31-14.89-3.86-13.09-4.65-26.42-3.66-39.78a124.46 124.46 0 0 1 6.4-30.75 5.28 5.28 0 0 1 3.59-3.59Q58.52 663.34 91.84 651c27.59-7.15 165.65 20.75 183.68 24.4 51.41 10.46 126.15 12.88 142.42 11.96z" fill="#FFF6D1" p-id="9689"></path><path d="M867.71 241.25c-9.78 3.94-19.51 8-30.05 9.62a99.08 99.08 0 0 1-30.46 0 49.09 49.09 0 0 0-6.38-0.57c-2.77-11.44-5.45-22.91-8.32-34.32q-12.78-50.9-25.68-101.75c-0.33-1.29-0.67-2.57-1-3.85 1.7-0.24 3.25 0.41 4.87 0.71 19.81 3.65 39.47 3.73 58.86-2.6 12.4-4.05 23.13-11.4 32.39-20.42-0.33 11.29 0.67 22.82 1 34.08 0.48 16.54 1.22 33.09 2 49.63 0.73 16.21 1.52 32.41 2 48.64 0.16 6.94 0.98 13.87 0.77 20.83z" fill="#CBD018" p-id="9690"></path><path d="M861.92 88.09c-9.26 9-20 16.37-32.38 20.42-19.39 6.33-39 6.25-58.86 2.6-1.62-0.3-3.17-1-4.87-0.71l-8.18-32.8c-2-8.15-0.12-13.2 6.92-18.18a61.07 61.07 0 0 1 31.14-10.9c14.77-1.1 29.51-0.56 43.57 5.43 6.2 2.64 11.56 6.37 17 10.23s5.19 9.41 5.55 14.7c0.28 4.36 0.11 6.05 0.11 9.21z" fill="#90860F" p-id="9691"></path><path d="M972.93 506.81c-0.69-7.53-0.69-15.26-1.55-22.78q-2.75-23.79-7.52-47.33a438.1 438.1 0 0 0-31.79-96.56 402.65 402.65 0 0 0-44.79-75.28c-6.18-8.13-11.9-16.69-19.57-23.61-5.11 2.06-10.21 4.14-15.41 5.9 63.14 285.2 36.78 536.66-214.86 600.34C445.63 896 343.74 828.58 281 786.7c-26.39-17.61-141.42-51.28-161.74-54-1.92 1.36-14.51 12.42-16.89 13.8-4.6 2.67-9.37 4.9-14.37 7.5 2.92 1.84 5.69 3.64 8.52 5.36a26.38 26.38 0 0 1 8.14 7.13 422.46 422.46 0 0 0 32.17 39.32c22.58 24.51 47 47.11 73.85 66.88A527.6 527.6 0 0 0 442 969.48c16.17 2.51 32.39 4.74 48.66 5.59 27.39 1.43 54.81 1.41 82.21-1.52a530.65 530.65 0 0 0 61.47-9.82A469.47 469.47 0 0 0 767 911.63 432.87 432.87 0 0 0 840.45 858 342.34 342.34 0 0 0 883 811.47a421.71 421.71 0 0 0 44.66-72.53 456.81 456.81 0 0 0 20.31-49 497.89 497.89 0 0 0 18.12-69.64 474.57 474.57 0 0 0 7.55-69.12 338.75 338.75 0 0 0-0.71-44.37z" fill="#F0A700" p-id="9692"></path><path d="M638 854.5c218.13-60.41 331.63-322.8 214.3-607.35a87.49 87.49 0 0 1-14.64 3.72 99.08 99.08 0 0 1-30.46 0 49.09 49.09 0 0 0-6.38-0.57c-1 24.18-3 48.26-6 72.3q-4 32.49-10.72 64.48c-7.65 36-18.11 71.11-32.57 105a453.43 453.43 0 0 1-35.44 67.41A402.42 402.42 0 0 1 675.75 612c-12.41 13.71-26.11 25.84-40.44 37.38a313.37 313.37 0 0 1-45.64 30.25 325.83 325.83 0 0 1-56.14 24.43A394.74 394.74 0 0 1 460 720.53c-14.27 1.8-28.59 2.76-42.91 3.6a268.66 268.66 0 0 1-28.38 0c-13-0.63-26-1.51-39-2.74-17.56-1.66-35-4.23-52.25-7.5-22.26-4.21-44.45-9-66.16-15.64-15.05-4.59-30.47-7.46-45.85-10.57-17.74-3.6-35.53-6.57-53.77-5.41-6 0.38-12 0-18 0.09-1.22 0-2.66-0.55-3.84 0.92a117.08 117.08 0 0 1 8.33 18.4c7 20.15 4.12 20.42 0.89 30.89 8.28 5.46 92.85 55.54 119.24 73.15C301 847.56 447.32 907.3 638 854.5z" fill="#FED119" p-id="9693"></path><path d="M417.94 687.36a446.37 446.37 0 0 0 44.88-4.64A383.92 383.92 0 0 0 528 666.6a300.78 300.78 0 0 0 91.58-50.37c33.8-27.26 60.72-60.46 82.24-98.11 18.36-32.12 32.35-66.12 43.4-101.38a758.18 758.18 0 0 0 21.56-88c3.19-17.1 5.69-34.35 8-51.59 1.17-8.63 2.11-17.31 2.93-26 0.56-5.8-3.1-10.93-4.94-16.3-8.72-25.33-18-50.45-26.65-75.81-8-23.45-18.19-52.72-22.77-70.72-2-7.77-3.78-19.29 0.38-32.07 4.57-14 16.41-25.16 24.29-29.69a107.67 107.67 0 0 1 50.46-14.11c7.27-0.27 14.58-0.35 21.86 0 19.2 1 37.27 6.63 53.26 18 10.46 7.44 19.15 16.07 22.34 29 0.06 23.19 2.89 138.44 1 164-0.36 4.73-1.15 7.2 2 10.66 17.08 18.53 31.76 38.86 45.07 60.25a400.5 400.5 0 0 1 24 45.28c9.88 21.65 19.6 45.95 25.69 69 16.21 41.8 17.61 150.22 13.72 177.57-2.15 15.15-4.68 32.37-6.75 43.87a476.82 476.82 0 0 1-11.48 48.88 523.16 523.16 0 0 1-18.57 53.52 475.9 475.9 0 0 1-38.55 74.2 470.51 470.51 0 0 1-28.86 40.25c-7.18 9-14.43 18.06-22.65 26.08C843.34 909.52 804 942 760.78 959.53c-36.4 14.8-72.38 29.55-110.71 38.14a649.19 649.19 0 0 1-69.23 11.16c-28 3.16-56.07 3.3-84.12 2.53-17-0.47-33.9-2.34-50.8-4.5a554.22 554.22 0 0 1-115.39-27.32c-47.4-16.81-91.57-39.76-132.07-69.74a476.7 476.7 0 0 1-62-54.34C118.61 836.67 101.62 817 87.77 795c-6.64-10.55-15.46-16.84-27-20.42-9.65-3-19.08-6.66-28.63-10-7.22-2.51-11.13-7.52-13.31-14.89-3.86-13.09-4.65-26.42-3.66-39.78a124.46 124.46 0 0 1 6.4-30.75 5.28 5.28 0 0 1 3.59-3.59Q58.52 663.34 91.84 651c27.59-7.15 165.65 20.75 183.68 24.4 51.41 10.46 126.15 12.88 142.42 11.96z m348.13-576.71c0.33 1.29 0.68 2.57 1 3.85q12.85 50.88 25.69 101.75c2.87 11.42 5.55 22.88 8.31 34.32-1 24.18-3 48.26-6 72.3q-4 32.5-10.73 64.48c-7.64 36-18.11 71.12-32.57 105a452.5 452.5 0 0 1-35.44 67.41A402.31 402.31 0 0 1 676 612.27c-12.41 13.7-26.11 25.83-40.44 37.38a314.57 314.57 0 0 1-45.63 30.24 324.39 324.39 0 0 1-56.15 24.43 394.66 394.66 0 0 1-73.57 16.47c-14.28 1.79-28.6 2.76-42.91 3.6a266.19 266.19 0 0 1-28.39 0c-13-0.63-26-1.51-39-2.74-17.55-1.66-35-4.22-52.25-7.49-22.26-4.22-44.45-9-66.16-15.64-15-4.6-30.47-7.46-45.84-10.58-17.74-3.59-35.53-6.57-53.78-5.41-6 0.38-12 0-18 0.09-1.22 0-2.65-0.55-3.83 0.92a117.64 117.64 0 0 1 8.32 18.41c7.88 22.82 4.47 33.11-15.8 44.88-4.56 2.65-9.36 4.88-14.29 7.43 2.92 1.84 5.7 3.63 8.52 5.35a26.51 26.51 0 0 1 8.14 7.13A422.75 422.75 0 0 0 137.12 806c22.58 24.52 47 47.11 73.86 66.88a527.41 527.41 0 0 0 231.23 96.85c16.17 2.5 32.39 4.73 48.66 5.58 27.4 1.44 54.82 1.41 82.21-1.52a527.83 527.83 0 0 0 61.47-9.79 469.35 469.35 0 0 0 132.71-52.1 433 433 0 0 0 73.45-53.68 341.73 341.73 0 0 0 42.5-46.48 420.33 420.33 0 0 0 44.66-72.53 458.08 458.08 0 0 0 20.32-49 498.92 498.92 0 0 0 18.12-69.64 474.4 474.4 0 0 0 7.54-69.12 338.77 338.77 0 0 0-0.67-44.36c-0.68-7.53-0.69-15.26-1.55-22.77q-2.75-23.81-7.51-47.34a439 439 0 0 0-31.8-96.56 403.29 403.29 0 0 0-44.79-75.28c-6.18-8.13-11.9-16.69-19.56-23.61-0.48-11-2-48.28-2.69-64.5-0.74-16.53-1.84-37.94-2.32-54.48-0.33-11.27-1.38-22.59-1.05-33.88a76.66 76.66 0 0 0-0.06-9.47c-0.63-5.27 0-10.93-5.36-14.74s-10.78-7.59-17-10.23c-14-6-28.79-6.53-43.57-5.43a61.07 61.07 0 0 0-31.14 10.9c-7 5-8.94 10-6.92 18.18q4.14 16.38 8.21 32.77z" fill="#6E3914" p-id="9694"></path></svg>